<?xml version="1.0" encoding="UTF-8" standalone="no"?>
<svg
   xmlns:dc="http://purl.org/dc/elements/1.1/"
   xmlns:cc="http://creativecommons.org/ns#"
   xmlns:rdf="http://www.w3.org/1999/02/22-rdf-syntax-ns#"
   xmlns:svg="http://www.w3.org/2000/svg"
   xmlns="http://www.w3.org/2000/svg"
   xmlns:xlink="http://www.w3.org/1999/xlink"
   xmlns:sodipodi="http://sodipodi.sourceforge.net/DTD/sodipodi-0.dtd"
   xmlns:inkscape="http://www.inkscape.org/namespaces/inkscape"
   sodipodi:docname="blocked_logo.svg"
   inkscape:version="1.0 (4035a4fb49, 2020-05-01)"
   id="svg8"
   version="1.1"
   viewBox="0 0 72.321342 72.333138"
   height="72.333138mm"
   width="72.321342mm">
  <defs
     id="defs2">
    <linearGradient
       id="linearGradient45"
       inkscape:collect="always">
      <stop
         id="stop41"
         offset="0"
         style="stop-color:#ff00ff;stop-opacity:1" />
      <stop
         id="stop43"
         offset="1"
         style="stop-color:#000080;stop-opacity:1" />
    </linearGradient>
    <linearGradient
       inkscape:collect="always"
       id="linearGradient33">
      <stop
         style="stop-color:#ff00ff;stop-opacity:1"
         offset="0"
         id="stop29" />
      <stop
         style="stop-color:#0000ff;stop-opacity:1"
         offset="1"
         id="stop31" />
    </linearGradient>
    <linearGradient
       inkscape:collect="always"
       xlink:href="#linearGradient33"
       id="linearGradient37"
       x1="51.741631"
       y1="97.699364"
       x2="123.19717"
       y2="133.53502"
       gradientUnits="userSpaceOnUse" />
    <linearGradient
       inkscape:collect="always"
       xlink:href="#linearGradient45"
       id="linearGradient77"
       gradientUnits="userSpaceOnUse"
       x1="51.741631"
       y1="97.699364"
       x2="122.40304"
       y2="146.49771" />
    <linearGradient
       y2="101.37081"
       x2="69.513054"
       y1="131.03911"
       x1="101.68736"
       gradientUnits="userSpaceOnUse"
       id="linearGradient208"
       xlink:href="#linearGradient45"
       inkscape:collect="always" />
    <linearGradient
       y2="133.53502"
       x2="123.19717"
       y1="97.699364"
       x1="51.741631"
       gradientUnits="userSpaceOnUse"
       id="linearGradient210"
       xlink:href="#linearGradient33"
       inkscape:collect="always" />
  </defs>
  <sodipodi:namedview
     inkscape:window-maximized="1"
     inkscape:window-y="0"
     inkscape:window-x="0"
     inkscape:window-height="1029"
     inkscape:window-width="1920"
     fit-margin-bottom="0"
     fit-margin-right="0"
     fit-margin-left="0"
     fit-margin-top="0"
     showgrid="false"
     inkscape:document-rotation="0"
     inkscape:current-layer="layer1"
     inkscape:document-units="mm"
     inkscape:cy="238.666"
     inkscape:cx="487.20684"
     inkscape:zoom="0.35000001"
     inkscape:pageshadow="2"
     inkscape:pageopacity="0"
     borderopacity="1.0"
     bordercolor="#666666"
     pagecolor="#3c3c3c"
     id="base" />
  <metadata
     id="metadata5">
    <rdf:RDF>
      <cc:Work
         rdf:about="">
        <dc:format>image/svg+xml</dc:format>
        <dc:type
           rdf:resource="http://purl.org/dc/dcmitype/StillImage" />
        <dc:title></dc:title>
      </cc:Work>
    </rdf:RDF>
  </metadata>
  <g
     transform="translate(-47.317294,-78.494935)"
     id="layer1"
     inkscape:groupmode="layer"
     inkscape:label="Layer 1">
    <g
       id="g19"
       style="fill:url(#linearGradient37);fill-opacity:1">
      <g
         transform="translate(-3.5758909,-2.7344558)"
         style="fill:url(#linearGradient210);fill-opacity:1"
         id="g160">
        <path
           d="m 102.88086,81.238281 c -2.13722,0.0447 -4.250427,1.148551 -5.742127,2.71506 -3.422685,3.14328 -6.673588,6.46681 -10.056702,9.650175 -3.746253,-3.612463 -7.280451,-7.421954 -11.225871,-10.81407 -1.237824,-1.033581 -2.834588,-1.589675 -4.448101,-1.484365 -1.715764,-0.08212 -3.600118,0.08119 -4.907136,1.329591 -3.064019,2.436355 -5.691677,5.356843 -8.480186,8.091578 -2.177339,2.240395 -4.52797,4.367611 -6.279108,6.973112 -1.309077,2.372838 -0.949366,5.344908 0.158762,7.720558 0.927945,1.47886 2.297218,2.6121 3.442807,3.91602 2.61014,2.72995 5.288986,5.3936 7.938052,8.08594 -3.730649,3.87076 -7.686112,7.54077 -11.169087,11.63936 -1.375558,2.34591 -1.667503,5.42383 -0.459819,7.89384 1.447454,2.43087 3.636052,4.28691 5.545486,6.33868 3.065137,3.06207 6.052233,6.18928 9.344014,9.00101 2.457741,1.54516 5.806624,1.72111 8.347786,0.28894 2.581123,-1.87705 4.684416,-4.3054 6.996296,-6.48712 1.733663,-1.71546 3.464499,-3.43378 5.200012,-5.14737 3.748543,3.6427 7.311664,7.48531 11.242042,10.93505 1.126215,0.95829 2.58845,1.4771 4.06874,1.3617 1.60256,0.0793 3.29156,0.0226 4.69508,-0.84949 2.26231,-1.21429 3.87494,-3.28641 5.72759,-5.01082 3.08261,-3.1651 6.33771,-6.18883 9.10239,-9.64346 0.9329,-1.19316 1.37091,-2.70207 1.27539,-4.20718 0.0689,-1.66778 -0.20006,-3.50744 -1.36613,-4.74665 -2.44726,-3.07379 -5.40369,-5.68387 -8.11307,-8.5172 -0.94048,-0.94522 -1.88111,-1.8903 -2.82149,-2.83562 3.59087,-3.73704 7.45399,-7.33426 10.79805,-11.22667 1.03291,-1.24654 1.61583,-2.84415 1.50319,-4.46882 0.0719,-1.793414 -0.0361,-3.788858 -1.34979,-5.161024 -2.40678,-3.044028 -5.30226,-5.650943 -8.0022,-8.426198 -2.00112,-1.929248 -3.90549,-3.998546 -6.14814,-5.651416 -1.42812,-0.89383 -3.13353,-1.342032 -4.81673,-1.263141 z m 1.20312,3.097657 c 0.63982,-0.05862 1.29682,0.08187 1.66255,0.658639 4.26581,4.327926 8.7052,8.489127 12.79284,12.988154 1.04412,1.141988 1.97747,2.727199 1.43548,4.317229 -0.52871,2.04232 -2.30375,3.38257 -3.63656,4.90127 -2.42391,2.44489 -4.79589,4.96154 -7.36759,7.24799 -0.86968,0.43741 -1.48067,-0.57919 -2.06264,-1.05185 -5.6353,-5.52071 -11.222762,-11.09766 -16.648294,-16.825104 -0.525863,-0.537399 -0.265825,-1.329097 0.271586,-1.740593 2.94182,-3.256247 6.122413,-6.28693 9.293685,-9.315411 1.021743,-1.038114 2.524473,-1.230518 3.911583,-1.165293 0.11579,-0.0044 0.23154,-0.01172 0.34736,-0.01503 z m -32.828121,0.01953 c 1.832271,0.02819 3.005093,1.60629 4.277695,2.689302 5.82487,5.490671 11.41521,11.224888 17.107222,16.85429 8.800004,8.79161 17.629814,17.55753 26.226524,26.5484 1.39339,1.36916 1.70566,3.69982 0.5779,5.32469 -0.95226,1.3039 -2.1785,2.39079 -3.25995,3.58975 -3.40513,3.52698 -6.87863,6.99378 -10.53877,10.25529 -1.73093,1.45743 -4.46958,0.92616 -5.886855,-0.71503 -11.92374,-11.52448 -23.571691,-23.32981 -35.287904,-35.06244 -3.089876,-3.18473 -6.28186,-6.28435 -9.147344,-9.67507 -0.866966,-1.07666 -1.657011,-2.49253 -1.144522,-3.90474 0.566491,-1.76239 2.140565,-2.899637 3.302366,-4.259319 3.201832,-3.28932 6.421226,-6.570616 9.775716,-9.705543 1.136558,-0.943584 2.420097,-2.038823 3.997922,-1.93958 z m -5.226562,35.781252 c 5.96304,5.96317 11.958147,11.90656 17.833984,17.95312 0.738069,0.54658 0.222083,1.51269 -0.34525,1.96804 -3.168172,3.2411 -6.352294,6.48291 -9.764871,9.46363 -1.455732,0.98394 -3.287289,0.62376 -4.936754,0.70896 -4.714842,-4.76776 -9.633949,-9.34854 -14.0625,-14.38867 -1.08525,-1.50894 -0.911341,-3.69216 0.316406,-5.06836 2.182965,-2.9066 4.956116,-5.2913 7.467018,-7.90206 1.039689,-1.0352 2.078881,-2.0709 3.11892,-3.10576 0.124349,0.1237 0.248698,0.2474 0.373047,0.3711 z"
           style="fill:url(#linearGradient77);fill-opacity:1;stroke-width:0.264583"
           id="path1931-9" />
        <path
           id="path1947-2"
           d="m 81.091996,127.12627 c -0.992453,-0.55648 -1.812798,-1.17505 -2.604061,-1.96356 -3.279367,-3.26795 -4.112511,-8.44073 -2.018368,-12.5316 0.287018,-0.56068 0.49682,-1.06052 0.466248,-1.11077 -0.03057,-0.0503 -0.58114,-0.56694 -1.223461,-1.14819 -0.642327,-0.58124 -1.179188,-1.1047 -1.193031,-1.16319 -0.01383,-0.0586 0.05227,-0.15446 0.14657,-0.21329 0.248027,-0.15441 7.904038,-1.30691 8.146252,-1.22631 0.11181,0.0372 0.236321,0.15229 0.276624,0.25589 0.07661,0.19666 -0.326585,7.85845 -0.430078,8.17265 -0.10168,0.30812 -0.484378,0.0731 -1.685666,-1.0351 -0.919052,-0.8478 -1.164301,-1.02825 -1.252174,-0.92127 -0.06008,0.0731 -0.226542,0.48809 -0.369862,0.92204 -0.880858,2.66672 -0.187787,5.57227 1.791457,7.51133 0.848102,0.83089 1.603493,1.28555 2.801863,1.68642 1.140621,0.38194 1.960604,0.46287 3.185528,0.31584 0.481121,-0.0577 0.889243,-0.10012 0.906935,-0.0943 0.01768,0.006 0.264737,0.77909 0.548993,1.71823 0.366443,1.2107 0.472968,1.72272 0.366099,1.75968 -0.751419,0.2599 -2.583564,0.39973 -3.827998,0.29215 -1.032639,-0.0893 -3.154938,-0.73495 -4.031842,-1.2267 z m 9.987134,-0.30325 c -0.0876,-0.12433 -0.0574,-1.49421 0.09062,-4.10972 0.122107,-2.15777 0.24764,-4.00159 0.278957,-4.09739 0.03143,-0.0958 0.113444,-0.18753 0.182438,-0.20387 0.06909,-0.0164 0.675816,0.4697 1.348416,1.08008 0.672589,0.61038 1.281223,1.09596 1.352514,1.07909 0.07345,-0.0174 0.250363,-0.39605 0.408097,-0.87343 1.009105,-3.05351 0.08273,-6.16048 -2.435919,-8.17077 -0.60732,-0.48477 -0.787133,-0.57024 -2.15387,-1.02388 -1.384247,-0.45964 -1.553468,-0.4925 -2.359024,-0.4611 -0.477286,0.0186 -1.052635,0.0761 -1.278548,0.12771 -0.233189,0.0532 -0.435505,0.0423 -0.468005,-0.0253 -0.0315,-0.0655 -0.279292,-0.84875 -0.55067,-1.74045 l -0.493414,-1.62126 0.524728,-0.12973 c 0.860715,-0.21278 1.994268,-0.2952 3.125438,-0.22723 0.90794,0.0546 1.292616,0.13876 2.609174,0.57129 1.747967,0.57463 2.598493,1.04937 3.857152,2.15487 3.674951,3.22779 4.735036,8.70196 2.522249,13.0246 -0.287047,0.56065 -0.496828,1.06055 -0.466307,1.11081 0.03057,0.0503 0.580435,0.564 1.221908,1.14161 0.641485,0.57761 1.178346,1.10102 1.193046,1.16314 0.0148,0.0621 -0.0498,0.1603 -0.142666,0.21841 -0.201929,0.12569 -7.905443,1.30867 -8.100145,1.24388 -0.07414,-0.0247 -0.193957,-0.12877 -0.266228,-0.23135 z"
           style="fill:url(#linearGradient208);fill-opacity:1;stroke-width:0.10836" />
      </g>
    </g>
  </g>
</svg>
